<svg xmlns="http://www.w3.org/2000/svg" width="40" height="40" viewBox="0 0 40 40" fill="none">
  <path d="M 20.98 13.18 L 30.94 13.18 L 30.94 16.1 L 27.6 16.1 L 27.6 26.78 L 24.32 26.78 L 24.32 16.1 L 20.98 16.1 L 20.98 13.18 Z M 20 37.541 C 10.32 37.541 2.46 29.68 2.46 20 C 2.46 10.32 10.32 2.46 20 2.46 C 29.68 2.46 37.541 10.32 37.541 20 C 37.541 29.68 29.681 37.541 20 37.541 Z M 20 40 C 31.04 40 40 31.04 40 20 C 40 8.959 31.04 0 20 0 C 8.96 0 0 8.96 0 20 C 0 31.041 8.96 40 20 40 Z M 16.62 22.62 C 16.62 21.76 16.08 21.18 15.16 21.18 L 12.96 21.18 L 12.96 24.02 L 15.16 24.02 C 16.08 24.021 16.62 23.44 16.62 22.62 Z M 16.221 17.16 C 16.221 16.44 15.761 15.94 14.981 15.94 L 12.961 15.94 L 12.961 18.421 L 14.981 18.421 C 15.761 18.42 16.221 17.921 16.221 17.16 Z M 19.94 22.78 C 19.94 25.36 18.12 26.781 15.521 26.781 L 9.724 26.781 L 9.724 13.18 L 15.141 13.18 C 17.761 13.18 19.541 14.52 19.541 16.98 C 19.541 18.1 19.041 19.1 18.241 19.701 C 19.16 20.24 19.94 21.28 19.94 22.78 Z" fill="currentColor" fill-rule="nonzero"/>
</svg>
